<?xml version="1.0" ?>
<svg data-name="Filled Outline" id="Filled_Outline" viewBox="0 0 128 128" xmlns="http://www.w3.org/2000/svg">
<title/>
<rect height="36.913" rx="13.535" ry="13.535" style="fill:#fdbb81" width="51.974" x="9.763" y="87.104"/>

<circle cx="20.172" cy="74.802" r="7.59" style="fill:#fdbb81"/>
<circle cx="41.488" cy="69.763" r="4.692" style="fill:#fdbb81"/>
<circle cx="25.601" cy="55.558" r="4.692" style="fill:#fdbb81"/>





<rect height="17.878" style="fill:#fc6067" width="8.391" x="81.804" y="19.372"/>
<path d="M73.677,33.875H98.323a0,0,0,0,1,0,0v6.979a4.687,4.687,0,0,1-4.687,4.687H78.364a4.687,4.687,0,0,1-4.687-4.687V33.875a0,0,0,0,1,0,0Z" style="fill:#fc6067" transform="translate(172 79.416) rotate(180)"/>
<path d="M96.16,19.816C89.744,19.092,77.007,18.338,66.745,22a3.715,3.715,0,0,1-5.007-3.465h0a3.685,3.685,0,0,1,2.092-3.343c11.1-5.217,26.556-4.09,33.194-3.275a3.7,3.7,0,0,1,3.238,3.675v.546A3.7,3.7,0,0,1,96.16,19.816Z" style="fill:#fdbb81"/>
<rect height="78.633" rx="15" ry="15" style="fill: #68b1fc" width="63.923" x="54.038" y="44.995"/>
<rect height="78.633" rx="15" ry="15" style="fill: #68b1fc" width="63.923" x="54.038" y="45.384"/>

<rect height="31.516" rx="7.447" ry="7.447" style="fill:#fff4f3" width="44.315" x="63.843" y="68.773"/> 






</svg>
