<svg xmlns="http://www.w3.org/2000/svg" width="610" height="480" viewBox="0 0 610 480" version="1.1"><path d="M 436.415 55.367 C 426.909 59.674, 425.472 72.122, 433.699 78.903 L 437.250 81.831 436.587 107.665 C 435.765 139.659, 435.724 139.951, 431.676 142.500 C 429.929 143.600, 427.661 146.301, 426.636 148.502 C 424.856 152.325, 423.465 153.183, 395.363 167.784 L 365.952 183.065 361.204 181.379 C 354.850 179.122, 349.976 180.091, 345.584 184.482 C 338.890 191.177, 340.276 200.987, 348.588 205.734 C 353.311 208.430, 357.345 208.586, 361.929 206.248 C 366.375 203.981, 369.014 200.293, 369.682 195.413 L 370.218 191.500 398.693 176.731 L 427.167 161.963 430.113 164.442 C 434.216 167.894, 439.432 168.688, 444.955 166.702 C 450.112 164.848, 448.179 163.763, 465 177.952 C 470.225 182.360, 479.107 189.686, 484.738 194.233 C 494.463 202.086, 494.977 202.690, 494.988 206.300 C 495.009 213.056, 498.432 217.610, 505.647 220.483 C 509.660 222.081, 509.950 222.060, 514.639 219.817 C 523.449 215.604, 526.499 207.036, 521.730 199.898 C 517.715 193.888, 509.806 191.588, 502.924 194.430 C 501.373 195.070, 486.744 184.217, 480.980 178.152 C 479.594 176.693, 475.994 173.745, 472.980 171.600 C 461.586 163.490, 454.038 156.571, 454.019 154.218 C 453.987 150.394, 451.413 145.468, 448.085 142.864 L 444.929 140.393 445.962 116.947 C 446.530 104.051, 446.999 90.800, 447.004 87.500 C 447.012 81.925, 447.219 81.383, 449.921 79.846 C 458.470 74.982, 458.973 62.652, 450.864 56.711 C 447.471 54.225, 440.390 53.566, 436.415 55.367 M 342.750 220.706 C 343.988 220.944, 346.012 220.944, 347.250 220.706 C 348.488 220.467, 347.475 220.272, 345 220.272 C 342.525 220.272, 341.512 220.467, 342.750 220.706" stroke="none" fill="#fdd5a6" fill-rule="evenodd"/><path d="M 77 100 L 77 137 173.500 137 L 270 137 270 122.500 L 270 108 275 108 L 280 108 280 98.500 L 280 89 275 89 L 270 89 270 76 L 270 63 173.500 63 L 77 63 77 100" stroke="none" fill="#fc6067" fill-rule="evenodd"/><path d="M 578 67.602 C 578 70.338, 579.622 76.986, 582 84 C 585.515 94.366, 586 96.905, 586 104.941 L 586 114.087 580.587 119.543 L 575.174 125 558.087 125 C 542.468 125, 541.003 124.850, 541.033 123.250 C 541.051 122.287, 534.639 108.576, 526.783 92.779 L 512.500 64.059 501.750 64.029 L 491 64 491 70 C 491 73.300, 491.421 76, 491.937 76 C 492.452 76, 495.039 79.263, 497.687 83.250 C 500.334 87.237, 503.282 91.367, 504.239 92.426 C 505.195 93.486, 506.238 95.173, 506.556 96.176 C 506.874 97.179, 507.524 98, 508 98 C 508.476 98, 509.126 98.821, 509.444 99.824 C 509.762 100.827, 510.860 102.546, 511.884 103.645 C 513.692 105.586, 516.879 110.107, 521.122 116.750 C 522.263 118.537, 523.587 120, 524.064 120 C 525.090 120, 526.987 123.335, 527.512 126.065 C 527.876 127.953, 526.889 128, 486.943 128 L 446 128 446 132 L 446 136 455.500 136 L 465 136 465 150.132 L 465 164.264 468.750 167.802 L 472.500 171.340 472.774 154.170 L 473.047 137 527.329 137 L 581.611 137 584.659 134.750 C 586.336 133.512, 589.671 130.725, 592.072 128.555 C 596.128 124.890, 596.488 124.147, 597.167 118.055 C 598.158 109.161, 598.189 87.246, 597.211 86.833 C 596.777 86.650, 594.693 81.213, 592.580 74.750 L 588.739 63 583.370 63 L 578 63 578 67.602 M 330 87.500 L 330 111 333.481 111 C 336.466 111, 337.048 110.608, 337.564 108.250 C 337.895 106.737, 338.577 104.199, 339.080 102.608 C 340.014 99.657, 350.176 82.643, 355.211 75.600 C 357.105 72.952, 358 70.464, 358 67.850 L 358 64 344 64 L 330 64 330 87.500 M 397.612 89.308 C 397.229 103.227, 397.197 116.390, 397.543 118.558 C 398.495 124.534, 395.587 126.807, 386.490 127.199 L 379.500 127.500 379.186 130.757 C 378.990 132.796, 379.364 134.173, 380.186 134.438 C 380.909 134.672, 393.538 135.042, 408.250 135.260 L 435 135.657 435 131.828 L 435 128 427.750 128.002 L 420.500 128.004 420.810 121.752 C 420.989 118.156, 419.820 107.131, 418.060 95.796 C 416.377 84.959, 415 73.371, 415 70.046 L 415 64 406.654 64 L 398.309 64 397.612 89.308 M 472 96.800 C 472 106.978, 472.375 111.975, 473.200 112.800 C 474.521 114.121, 484.083 114.379, 493.853 113.358 L 500 112.715 500 107.074 C 500 102.372, 499.440 100.563, 496.637 96.213 C 494.788 93.342, 492.201 88.970, 490.889 86.497 L 488.503 82 480.252 82 L 472 82 472 96.800 M 289 99.500 L 289 116 297.500 116 L 306 116 306 111.500 L 306 107 314 107 L 322 107 322 99 L 322 91 314 91 L 306 91 306 87 L 306 83 297.500 83 L 289 83 289 99.500 M 336.014 193.250 C 336.021 205.488, 336.299 216.512, 336.630 217.750 C 337.187 219.826, 337.805 220, 344.617 220 L 352 220 352 213.975 C 352 208.653, 351.738 207.848, 349.750 207.076 C 348.512 206.595, 346.188 204.816, 344.584 203.123 C 342.304 200.716, 341.571 198.875, 341.224 194.683 C 340.816 189.769, 341.047 189.016, 343.993 185.661 C 346.354 182.971, 346.782 182, 345.604 182 C 344.405 182, 344 181.010, 344 178.082 C 344 172.172, 343.238 171, 339.393 171 L 336 171 336.014 193.250 M 458.231 196.750 L 458.500 219.500 465.750 219.794 L 473 220.088 473 202.566 L 473 185.044 466.305 179.522 C 462.623 176.485, 459.240 174, 458.787 174 C 458.333 174, 458.083 184.238, 458.231 196.750 M 118.214 211.283 L 112.997 216.566 118.499 221.999 L 124 227.432 129.501 221.999 L 135.003 216.566 129.786 211.283 C 126.916 208.377, 124.313 206, 124 206 C 123.687 206, 121.084 208.377, 118.214 211.283 M 348.306 245.272 L 343.275 250.544 348.637 256.022 L 354 261.500 359.363 256.022 L 364.725 250.544 359.694 245.272 C 356.926 242.372, 354.364 240, 354 240 C 353.636 240, 351.074 242.372, 348.306 245.272 M 114.306 350.272 L 109.275 355.544 114.637 361.022 L 120 366.500 125.363 361.022 L 130.725 355.544 125.694 350.272 C 122.926 347.372, 120.364 345, 120 345 C 119.636 345, 117.074 347.372, 114.306 350.272" stroke="none" fill="#292e3d" fill-rule="evenodd"/><path d="M 1.444 235.032 L 1.495 468.782 39.002 468.775 L 76.508 468.769 76.568 235.002 L 76.627 1.235 39.010 1.258 L 1.392 1.282 1.444 235.032 M 91 182.339 C 91 184.742, 92.410 187.312, 96.589 192.526 C 99.663 196.362, 102.773 200.330, 103.499 201.344 C 104.668 202.975, 106.644 203.229, 120.580 203.534 L 136.340 203.879 139.420 206.959 C 142.119 209.658, 142.474 210.653, 142.290 214.993 L 142.081 219.945 235.290 219.886 C 286.556 219.853, 330.188 219.601, 332.250 219.325 L 336 218.824 336 199.007 L 336 179.189 213.500 179.157 L 91 179.125 91 182.339 M 487.790 183 C 489.891 184.925, 493.643 188.152, 496.127 190.171 C 500.475 193.705, 500.871 193.822, 506.660 193.297 C 517.394 192.324, 523.989 197.578, 523.996 207.110 C 523.999 210.369, 523.276 212.788, 521.530 215.360 L 519.060 219 540.530 219.221 C 552.339 219.342, 565.263 219.454, 569.250 219.471 L 576.500 219.500 576.655 202 C 576.740 192.375, 576.616 183.375, 576.380 182 L 575.951 179.500 529.961 179.500 L 483.971 179.500 487.790 183 M 473.399 189.547 C 472.326 193.820, 473.895 218.314, 475.298 219.204 C 475.959 219.623, 482.261 219.896, 489.302 219.812 L 502.104 219.658 499.646 217.579 C 496.404 214.836, 495 211.874, 495 207.774 C 495 203.676, 490.780 199.384, 475.291 187.733 C 474.443 187.095, 473.879 187.635, 473.399 189.547 M 339.692 221.642 C 339.311 222.022, 339 225.123, 339 228.533 L 339 234.732 331.991 237.866 C 328.136 239.590, 324.694 241, 324.341 241 C 323.988 241, 321.405 242.110, 318.600 243.467 C 308.843 248.185, 293.494 255.248, 292.500 255.476 C 291.950 255.602, 286.610 258.037, 280.632 260.888 C 266.388 267.682, 263.282 268.949, 262.582 268.248 C 262.262 267.928, 262 268.128, 262 268.692 C 262 269.256, 258.288 271.179, 253.750 272.966 C 249.213 274.753, 242.125 277.798, 238 279.734 C 224.591 286.025, 195.526 299.203, 194.500 299.457 C 193.950 299.593, 189.675 301.536, 185 303.776 C 180.325 306.015, 175.825 307.994, 175 308.173 C 174.175 308.353, 173.275 308.779, 173 309.121 C 172.232 310.074, 154.601 317.509, 153.750 317.238 C 153.338 317.107, 153 317.360, 153 317.799 C 153 318.603, 147.268 321, 145.612 320.889 C 145.123 320.856, 144.448 321.250, 144.112 321.764 C 143.775 322.279, 140.575 323.941, 137 325.459 C 133.425 326.977, 124.954 330.662, 118.176 333.649 C 111.398 336.636, 104.566 339.337, 102.995 339.651 C 99.155 340.419, 98.597 344.101, 99.521 362.573 L 100.242 377 112.967 377 C 122.031 377, 126.528 376.586, 128.596 375.560 C 131.667 374.037, 165.925 358.279, 292.207 300.299 C 360.653 268.873, 370.050 264.294, 371.051 261.876 C 371.869 259.902, 371.951 253.843, 371.344 240.315 L 370.500 221.500 355.442 221.225 C 347.160 221.074, 340.072 221.261, 339.692 221.642 M 348.161 244.705 L 343.157 250.410 345.979 253.955 C 347.531 255.905, 349.958 258.579, 351.371 259.897 C 354.353 262.678, 354.734 262.485, 360.993 255.009 L 364.924 250.314 359.882 244.657 C 357.109 241.546, 354.463 239, 354.003 239 C 353.542 239, 350.914 241.567, 348.161 244.705 M 114.161 349.705 L 109.157 355.410 111.979 358.955 C 113.531 360.905, 115.958 363.579, 117.371 364.897 C 120.353 367.678, 120.734 367.485, 126.993 360.009 L 130.924 355.314 125.882 349.657 C 123.109 346.546, 120.463 344, 120.003 344 C 119.542 344, 116.914 346.567, 114.161 349.705" stroke="none" fill="#e7eaef" fill-rule="evenodd"/><path d="M 357.988 67.750 C 357.976 71.509, 356.918 73.496, 343.826 94.360 C 340.911 99.004, 338.892 103.539, 338.462 106.404 C 337.780 110.952, 337.732 111, 333.916 111 L 330.060 111 329.780 123.750 C 329.626 130.762, 329.837 138.750, 330.248 141.500 C 330.660 144.250, 331.071 148.188, 331.162 150.250 C 331.253 152.313, 331.645 154, 332.032 154 C 332.906 154, 334.227 161.408, 334.108 165.636 C 334.001 169.427, 335.390 170.730, 340.004 171.168 C 343.425 171.493, 343.507 171.604, 343.810 176.373 L 344.120 181.247 350.969 180.572 C 356.131 180.063, 358.735 180.280, 361.545 181.454 L 365.273 183.012 394.695 167.756 C 422.002 153.596, 424.275 152.213, 426.321 148.512 C 427.533 146.319, 429.965 143.619, 431.724 142.512 C 433.626 141.316, 434.939 139.650, 434.961 138.403 C 434.998 136.433, 434.318 136.266, 423.750 135.657 C 417.563 135.301, 404.738 135.007, 395.250 135.005 L 378 135 378 131 L 378 127 383.250 126.919 C 386.137 126.874, 389.736 126.747, 391.247 126.636 C 396.857 126.224, 396.888 126.059, 397.356 93.750 L 397.787 64 377.894 64 L 358 64 357.988 67.750 M 418.121 64.733 L 414.742 65.146 415.316 71.823 C 415.632 75.495, 417.034 85.700, 418.431 94.500 C 419.829 103.300, 420.979 114.438, 420.986 119.250 L 421 128 428.383 128 L 435.766 128 436.504 104.870 L 437.243 81.741 434.101 79.282 C 430.124 76.170, 428 72.085, 428 67.550 C 428 63.685, 427.609 63.574, 418.121 64.733 M 456.996 67.750 C 456.992 72.340, 453.967 77.543, 449.985 79.808 C 447.161 81.415, 447.012 81.830, 447.006 88.090 C 447.003 91.715, 446.704 102.177, 446.343 111.340 L 445.686 128 486.236 128 C 531.088 128, 530.811 128.043, 525.230 121.968 C 521.206 117.588, 520.529 116.742, 518.428 113.474 C 517.376 111.838, 515.730 109.633, 514.769 108.574 C 513.809 107.514, 512.762 105.827, 512.444 104.824 C 512.126 103.821, 511.455 103, 510.953 103 C 510.451 103, 509.115 101.313, 507.984 99.250 C 506.854 97.188, 504.573 93.700, 502.917 91.500 C 501.260 89.300, 498.356 85.167, 496.464 82.316 C 494.572 79.465, 492.568 76.851, 492.012 76.507 C 491.455 76.163, 491 73.209, 491 69.941 L 491 64 474 64 L 457 64 456.996 67.750 M 471.628 81.793 C 471.265 82.381, 471.271 89.879, 471.640 98.457 L 472.313 114.053 486.406 113.777 L 500.500 113.500 500.806 108.150 C 501.084 103.280, 500.648 101.985, 495.951 93.724 C 493.113 88.732, 490.183 84.040, 489.439 83.296 C 487.706 81.563, 472.560 80.285, 471.628 81.793 M 445 138.385 C 445 139.822, 445.988 141.417, 447.486 142.399 C 450.827 144.588, 453.220 148.421, 453.921 152.708 C 454.357 155.372, 455.794 157.354, 459.750 160.751 L 465 165.259 465 150.630 L 465 136 455 136 C 445.129 136, 445 136.031, 445 138.385 M 398.970 177.013 C 370.517 191.825, 370.500 191.836, 369.897 195.482 C 368.746 202.441, 362.246 207.995, 355.250 207.998 L 352 208 352 214 L 352 220 405 220 L 458 220 457.967 196.250 L 457.934 172.500 453.625 168.817 L 449.315 165.135 444.897 166.723 C 439.490 168.668, 434.206 167.886, 430.250 164.557 L 427.440 162.193 398.970 177.013 M 77 278 L 77 377 88.503 377 L 100.006 377 99.345 358 L 98.684 339 101.973 339 C 103.782 339, 110.595 336.638, 117.113 333.750 L 128.964 328.500 128.982 280.348 L 129 232.196 132.693 230.279 C 137.709 227.676, 140.118 224.142, 141.097 217.950 C 142.040 211.986, 140.466 206.855, 137.150 205.080 C 135.967 204.447, 129.048 204, 120.426 204 L 105.720 204 102.912 200.750 C 91.910 188.014, 91 186.643, 91 182.810 L 91 179 84 179 L 77 179 77 278 M 118.279 210.773 L 113.258 216.546 118.502 222.456 L 123.746 228.366 129.246 222.458 L 134.745 216.549 129.723 210.775 C 126.960 207.599, 124.385 205, 124 205 C 123.615 205, 121.040 207.598, 118.279 210.773" stroke="none" fill="#68b1fc" fill-rule="evenodd"/><path d="M 397.336 88 C 397.336 92.125, 397.513 93.813, 397.728 91.750 C 397.944 89.688, 397.944 86.313, 397.728 84.250 C 397.513 82.188, 397.336 83.875, 397.336 88 M 471.412 82.369 C 471.123 83.122, 471.054 86.160, 471.258 89.119 L 471.630 94.500 471.815 88.300 L 472 82.100 477.750 81.739 L 483.500 81.378 477.719 81.189 C 473.610 81.055, 471.785 81.396, 471.412 82.369 M 490 84.348 C 490 85.447, 496.104 95.946, 497.100 96.562 C 497.601 96.871, 496.365 94.284, 494.355 90.812 C 490.307 83.821, 490 83.365, 490 84.348 M 500.180 107.193 L 500 112.885 495.750 113.268 L 491.500 113.651 495.781 113.825 C 500.787 114.030, 501.279 113.290, 500.740 106.373 L 500.360 101.500 500.180 107.193 M 378 131 C 378 133.200, 378.337 135, 378.750 135 C 379.163 135, 379.500 133.200, 379.500 131 C 379.500 128.800, 379.163 127, 378.750 127 C 378.337 127, 378 128.800, 378 131 M 435.272 132 C 435.272 134.475, 435.467 135.488, 435.706 134.250 C 435.944 133.012, 435.944 130.988, 435.706 129.750 C 435.467 128.512, 435.272 129.525, 435.272 132 M 445.252 132.500 C 445.263 134.700, 445.468 135.482, 445.707 134.238 C 445.946 132.994, 445.937 131.194, 445.687 130.238 C 445.437 129.282, 445.241 130.300, 445.252 132.500 M 120.924 207.750 L 118.500 210.500 121.250 208.076 L 124 205.651 126.750 208.076 L 129.500 210.500 127.076 207.750 C 125.742 206.238, 124.358 205, 124 205 C 123.642 205, 122.258 206.238, 120.924 207.750 M 121.236 225.492 C 123.516 227.938, 124.183 228.200, 125.236 227.067 C 126.259 225.966, 126.248 225.850, 125.176 226.458 C 124.377 226.911, 122.790 226.287, 121.176 224.883 L 118.500 222.556 121.236 225.492" stroke="none" fill="#588ac1" fill-rule="evenodd"/><path d="M 322 99 L 322 105 326 105 L 330 105 330 99 L 330 93 326 93 L 322 93 322 99 M 280 98.500 L 280 103 284.500 103 L 289 103 289 98.500 L 289 94 284.500 94 L 280 94 280 98.500 M 485 181.863 C 487.475 184.092, 489.933 185.934, 490.462 185.957 C 491.619 186.009, 485.331 180.433, 482.500 178.897 C 481.400 178.300, 482.525 179.635, 485 181.863 M 506.250 179.749 C 516.563 179.911, 533.438 179.911, 543.750 179.749 C 554.063 179.586, 545.625 179.453, 525 179.453 C 504.375 179.453, 495.938 179.586, 506.250 179.749 M 473.079 187.250 C 473.122 188.488, 473.391 188.919, 473.676 188.208 C 474.097 187.160, 474.506 187.157, 475.847 188.191 C 476.994 189.076, 476.917 188.782, 475.595 187.233 C 473.222 184.452, 472.981 184.453, 473.079 187.250 M 576.310 199.500 C 576.315 202.800, 576.502 204.029, 576.725 202.232 C 576.947 200.435, 576.943 197.735, 576.715 196.232 C 576.486 194.729, 576.304 196.200, 576.310 199.500 M 490.946 200.340 C 494.544 204.161, 495 204.488, 495 203.250 C 495 202.838, 493.312 201.191, 491.250 199.590 L 487.500 196.681 490.946 200.340 M 108.264 203.718 C 109.784 203.947, 112.034 203.941, 113.264 203.704 C 114.494 203.467, 113.250 203.279, 110.500 203.286 C 107.750 203.294, 106.744 203.488, 108.264 203.718 M 140.973 210.430 C 141.481 211.766, 141.702 214.579, 141.464 216.680 L 141.031 220.500 141.997 216.766 C 142.877 213.360, 141.992 208, 140.550 208 C 140.275 208, 140.465 209.093, 140.973 210.430 M 473.185 213.750 C 473.026 219.111, 473.249 219.998, 474.750 219.985 C 475.925 219.974, 476.109 219.721, 475.310 219.213 C 474.656 218.797, 473.952 215.991, 473.745 212.978 L 473.370 207.500 473.185 213.750 M 518.694 217.532 L 515.888 220 539.194 219.771 L 562.500 219.541 540.613 219.251 C 518.871 218.962, 518.738 218.947, 520.518 216.980 C 522.962 214.280, 522.091 214.543, 518.694 217.532 M 310.776 219.733 C 313.128 219.945, 316.728 219.942, 318.776 219.727 C 320.824 219.512, 318.900 219.339, 314.500 219.343 C 310.100 219.346, 308.424 219.522, 310.776 219.733 M 332.083 219.356 C 332.313 219.552, 334.075 220.002, 336 220.355 C 338.462 220.807, 339.055 220.706, 338 220.014 C 336.644 219.125, 331.092 218.508, 332.083 219.356 M 358 220.614 C 363.969 221.365, 370.775 221.440, 370.347 220.750 C 370.091 220.338, 366.646 220.067, 362.691 220.150 C 358.736 220.232, 356.625 220.441, 358 220.614 M 99.136 341.750 C 99.248 344.014, 99.348 344.113, 99.698 342.311 C 99.943 341.048, 101.048 339.943, 102.311 339.698 C 104.113 339.348, 104.014 339.248, 101.750 339.136 C 99.354 339.018, 99.018 339.354, 99.136 341.750" stroke="none" fill="#e5e9e6" fill-rule="evenodd"/></svg>