<svg xmlns="http://www.w3.org/2000/svg" width="700" height="585" viewBox="0 0 700 585" version="1.1"><path d="M 551.077 157.077 C 547.248 160.906, 546.672 167.690, 550 169.768 C 551.100 170.455, 552 172.077, 552 173.372 C 552 175.500, 541.964 206.428, 538.493 215 C 537.713 216.925, 536.604 220.365, 536.027 222.644 C 534.918 227.034, 531.991 228.767, 527.887 227.464 C 526.070 226.887, 525.962 225.965, 526.222 213.141 C 526.464 201.233, 526.259 199.065, 524.664 196.621 C 523.345 194.601, 522.668 191.089, 522.259 184.154 C 521.798 176.326, 521.341 174.253, 519.845 173.193 C 518.830 172.475, 518 170.787, 518 169.443 C 518 167.114, 517.708 166.999, 511.750 166.989 C 508.313 166.983, 503.881 166.710, 501.902 166.383 L 498.304 165.788 497.629 178.144 C 497.258 184.940, 496.947 198.670, 496.938 208.655 L 496.921 226.810 493.503 228.432 C 491.623 229.324, 489.814 230.491, 489.483 231.027 C 489.153 231.562, 484.859 232, 479.941 232 C 472.660 232, 471 232.279, 471 233.500 C 471 234.325, 470.325 235, 469.500 235 C 468.667 235, 468 235.889, 468 237 C 468 238.100, 468.627 239, 469.393 239 C 470.159 239, 471.045 239.675, 471.362 240.500 C 471.851 241.776, 475.567 242.002, 496.219 242.015 C 509.573 242.024, 521.108 242.416, 521.852 242.887 C 522.912 243.559, 522.706 244.092, 520.899 245.358 C 519.233 246.525, 518.444 248.288, 518.048 251.730 L 517.500 256.489 489.500 262.222 C 474.100 265.375, 459.301 268.415, 456.614 268.978 C 453.926 269.540, 449.538 270, 446.864 270 L 442 270 442 262.500 L 442 255 438.609 255 L 435.219 255 434.626 265.750 C 434.301 271.663, 434.364 283.475, 434.767 292 L 435.500 307.500 444.250 307.839 L 453 308.177 453 291.683 L 453 275.188 458.230 274.468 C 461.106 274.073, 465.053 273.187, 467 272.500 C 468.947 271.813, 473.006 270.939, 476.020 270.557 C 479.034 270.176, 483.525 269.236, 486 268.469 C 492.950 266.315, 512.949 262, 515.981 262 C 517.473 262, 519.732 262.900, 521 264 C 522.404 265.218, 524.741 266, 526.976 266 C 530.079 266, 531.524 266.857, 536.323 271.542 L 542 277.085 542 292.042 L 542 307 549 307 L 556 307 556 301.500 C 556 296.056, 556.030 296, 559 296 C 560.650 296, 562 296.378, 562 296.839 C 562 297.301, 563.125 298.192, 564.500 298.818 C 565.875 299.445, 567 300.500, 567 301.163 C 567 301.827, 570.864 306.318, 575.586 311.144 C 583.937 319.678, 584.128 319.979, 582.586 322.181 C 580.666 324.922, 580.588 326.977, 582.278 330.236 C 584.988 335.459, 586.605 336.258, 593.563 335.815 C 601.481 335.311, 604.014 333.297, 604.253 327.317 C 604.548 319.917, 599.637 315.191, 591.127 314.684 L 585.910 314.374 570.972 298.937 L 556.033 283.500 556.017 269.758 C 556.001 257.090, 556.156 255.919, 558 254.768 C 559.628 253.751, 560 252.436, 560 247.694 C 560 237.660, 557.902 238.295, 589.334 238.809 C 616.546 239.254, 616.802 239.239, 617.931 237.129 C 619.028 235.080, 619.735 235, 636.814 235 L 654.558 235 660.779 228.723 C 664.557 224.911, 667 221.596, 667 220.282 C 667 219.092, 667.450 217.840, 668 217.500 C 668.550 217.160, 669 214.010, 669 210.500 C 669 206.990, 668.550 203.840, 668 203.500 C 667.450 203.160, 667 199.193, 667 194.684 C 667 186.652, 666.932 186.424, 663.626 183.389 C 661.770 181.686, 659.722 178.688, 659.075 176.726 C 657.648 172.403, 656.414 171.300, 652.500 170.847 C 649.572 170.508, 649.493 170.615, 649.194 175.271 C 648.962 178.894, 649.384 180.672, 650.944 182.656 C 652.478 184.606, 653 186.732, 653 191.028 C 653 195.224, 653.407 196.942, 654.500 197.362 C 655.733 197.835, 656 200.397, 656 211.769 C 656 221.193, 655.618 225.982, 654.800 226.800 C 654.041 227.559, 650.227 228, 644.422 228 C 634.306 228, 632.824 227.261, 633.129 222.368 C 633.391 218.169, 616.259 166.314, 614.371 165.589 C 613.527 165.265, 609.048 165, 604.418 165 L 596 165 596 168 C 596 169.650, 596.792 171.792, 597.759 172.759 C 598.727 173.727, 603.746 181.490, 608.912 190.009 C 614.078 198.529, 618.852 206.175, 619.521 207 C 621.236 209.115, 622.256 226.995, 620.689 227.471 C 620.035 227.670, 602.063 228.096, 580.750 228.418 L 542 229.003 542 224.030 C 542 219.371, 544.728 211.117, 556.222 181 C 557.377 177.975, 559.822 174.104, 561.656 172.398 C 567.389 167.065, 567.108 159.267, 561.053 155.691 C 556.936 153.258, 554.566 153.588, 551.077 157.077 M 420.607 167.582 C 420.273 168.452, 420 171.377, 420 174.082 L 420 179 416 179 C 413.800 179, 412 178.550, 412 178 C 412 177.417, 408.667 177, 404 177 L 396 177 396 173 L 396 169 387.500 169 L 379 169 379 175 C 379 180.333, 378.778 181, 377 181 C 375.296 181, 375 181.667, 375 185.500 C 375 189.333, 375.296 190, 377 190 C 378.753 190, 379 190.667, 379 195.393 C 379 201.782, 379.333 202, 389.082 202 L 396 202 396 197.500 L 396 193 403.500 193 C 408.118 193, 411 192.593, 411 191.940 C 411 191.326, 412.579 191.010, 414.750 191.190 L 418.500 191.500 418.785 201.156 L 419.070 210.812 422.052 209.324 C 423.691 208.506, 425.763 206.411, 426.656 204.669 C 427.549 202.926, 428.748 201.198, 429.322 200.828 C 430.357 200.162, 431.816 184.221, 431.937 172.250 L 432 166 426.607 166 C 422.612 166, 421.057 166.410, 420.607 167.582 M 577.620 184.547 C 577.279 185.436, 577 190.596, 577 196.014 C 577 204.577, 577.229 205.918, 578.750 206.266 C 581.801 206.963, 608.789 206.532, 609.554 205.773 C 609.957 205.374, 607.327 200.199, 603.709 194.273 L 597.132 183.500 587.686 183.215 C 579.739 182.976, 578.142 183.187, 577.620 184.547 M 534 241.321 C 534 243.196, 534.830 245.803, 535.845 247.115 C 538.207 250.168, 539.343 255.882, 537.927 257.588 C 536.445 259.373, 537.139 263.069, 539.197 264.359 C 541.595 265.862, 546.154 264.059, 547.732 260.983 C 548.573 259.344, 548.920 255.101, 548.753 248.500 L 548.500 238.500 541.250 238.206 L 534 237.912 534 241.321 M 200.746 295.799 C 195.846 300.631, 195.856 303.477, 200.792 308.297 C 205.850 313.236, 208.713 313.167, 213.384 307.997 C 218.072 302.807, 218.002 300.248, 213.044 295.661 C 208.079 291.067, 205.516 291.096, 200.746 295.799 M 195 438.744 C 190.118 444.173, 189.588 445.225, 191.148 446.384 C 191.974 446.998, 193.456 448.738, 194.440 450.250 C 195.425 451.762, 196.622 453, 197.102 453 C 198 453, 204.925 445.925, 204.973 444.958 C 205.016 444.102, 198.088 436.996, 197.252 437.038 C 196.838 437.059, 195.825 437.827, 195 438.744" stroke="none" fill="#2b2a28" fill-rule="evenodd"/><path d="M 506.776 166.733 C 509.128 166.945, 512.728 166.942, 514.776 166.727 C 516.824 166.512, 514.900 166.339, 510.500 166.343 C 506.100 166.346, 504.424 166.522, 506.776 166.733 M 647.472 171.046 C 646.440 172.715, 648.035 181.784, 649.587 183.072 C 650.467 183.803, 651.001 186.179, 651.004 189.372 C 651.006 192.731, 651.696 195.629, 653.004 197.774 C 654.704 200.563, 655 202.816, 655 212.965 C 655 219.519, 654.643 225.102, 654.207 225.372 C 653.771 225.642, 649.522 226.178, 644.764 226.564 L 636.114 227.266 634.639 223.883 C 633.253 220.707, 633.158 220.656, 633.082 223.050 C 633.037 224.453, 633.540 226.140, 634.200 226.800 C 635.828 228.428, 653.172 228.428, 654.800 226.800 C 655.618 225.982, 656 221.193, 656 211.769 C 656 200.397, 655.733 197.835, 654.500 197.362 C 653.407 196.942, 653 195.224, 653 191.028 C 653 186.697, 652.481 184.610, 650.905 182.607 C 649.269 180.526, 648.886 178.856, 649.155 174.971 C 649.485 170.222, 648.868 168.786, 647.472 171.046 M 659.203 176.927 C 659.817 178.813, 661.823 181.734, 663.660 183.421 C 666.926 186.418, 667 186.668, 667 194.684 C 667 199.193, 667.450 203.160, 668 203.500 C 668.636 203.893, 669 201.055, 669 195.694 C 669 186.868, 668.617 185.907, 662.577 179.564 C 661.435 178.364, 659.957 176.509, 659.293 175.441 C 658.329 173.889, 658.310 174.187, 659.203 176.927 M 667.750 217.572 C 667.337 217.991, 667 219.259, 667 220.390 C 667 221.563, 664.315 225.197, 660.750 228.849 C 657.313 232.371, 655.182 234.858, 656.015 234.376 C 656.849 233.894, 660.147 230.722, 663.345 227.326 C 667.440 222.978, 669.062 220.510, 668.830 218.981 C 668.648 217.787, 668.163 217.153, 667.750 217.572 M 617.890 237.250 C 616.749 239.423, 616.775 239.441, 618.655 237.776 C 620.295 236.322, 623.181 236.004, 637.050 235.749 L 653.500 235.447 636.285 235.223 C 619.342 235.004, 619.052 235.036, 617.890 237.250 M 560.193 247.009 C 560.036 252.309, 559.628 253.751, 558 254.768 C 556.368 255.787, 556.033 256.982, 556.180 261.258 L 556.360 266.500 556.729 261.500 C 556.989 257.979, 557.691 256.043, 559.102 254.956 C 560.819 253.632, 561.055 252.487, 560.746 246.956 L 560.385 240.500 560.193 247.009 M 433.058 256.191 C 433.089 257.461, 433.488 260.300, 433.943 262.500 C 434.765 266.475, 434.771 266.464, 434.885 260.809 C 434.948 257.679, 434.550 254.840, 434 254.500 C 433.439 254.153, 433.025 254.895, 433.058 256.191 M 434.310 288.500 C 434.315 291.800, 434.502 293.029, 434.725 291.232 C 434.947 289.435, 434.943 286.735, 434.715 285.232 C 434.486 283.729, 434.304 285.200, 434.310 288.500 M 562.706 289.929 C 571.090 299.268, 586.889 315.430, 587.206 314.992 C 587.401 314.721, 581.247 308.168, 573.531 300.429 C 565.814 292.689, 560.943 287.964, 562.706 289.929 M 567.014 303.147 C 567.006 303.502, 570.351 307.042, 574.446 311.013 C 578.541 314.984, 582.029 319.193, 582.197 320.366 C 582.420 321.923, 582.729 322.149, 583.340 321.201 C 583.920 320.304, 581.533 317.219, 575.603 311.201 C 570.887 306.416, 567.022 302.791, 567.014 303.147 M 556 305.397 C 556 306.580, 554.408 306.988, 548.750 307.257 L 541.500 307.603 549.750 307.801 C 556.358 307.960, 558 307.713, 558 306.559 C 558 305.766, 557.550 304.840, 557 304.500 C 556.450 304.160, 556 304.564, 556 305.397 M 448.453 316.755 C 446.777 318.265, 444.527 319.995, 443.453 320.601 C 439.839 322.638, 440.446 326.500, 445.040 330.697 C 451.786 336.859, 452.304 336.907, 457.890 331.899 C 460.589 329.480, 462.842 327.147, 462.898 326.715 C 463.054 325.517, 453.639 314.017, 452.500 314.013 C 451.950 314.011, 450.129 315.245, 448.453 316.755 M 203.952 443.279 C 205.112 444.818, 204.974 445.426, 202.925 447.779 L 200.556 450.500 203.499 447.756 C 206.382 445.068, 206.403 444.978, 204.526 443.256 C 202.696 441.579, 202.670 441.580, 203.952 443.279" stroke="none" fill="#727270" fill-rule="evenodd"/><path d="M 90 283.500 L 90 518 129.500 518 L 169 518 169.009 388.250 C 169.014 316.887, 169.041 249.950, 169.069 239.500 C 169.096 229.050, 169.092 181.912, 169.060 134.750 L 169 49 129.500 49 L 90 49 90 283.500 M 575.206 165.741 C 578.895 165.932, 585.195 165.934, 589.206 165.743 C 593.218 165.553, 590.200 165.396, 582.500 165.395 C 574.800 165.393, 571.518 165.549, 575.206 165.741 M 660.870 177.694 C 662.076 180.015, 663.845 181.488, 664.563 180.771 C 664.799 180.535, 663.808 179.252, 662.360 177.921 C 659.851 175.613, 659.782 175.602, 660.870 177.694 M 648.538 184.008 C 648.993 185.379, 649.677 188.300, 650.058 190.500 L 650.750 194.500 650.875 189.372 C 650.964 185.719, 650.527 183.852, 649.356 182.880 C 647.881 181.657, 647.797 181.773, 648.538 184.008 M 653.987 205.796 L 654.475 212.500 654.792 206.604 C 654.966 203.362, 654.747 200.345, 654.304 199.900 C 653.862 199.455, 653.719 202.108, 653.987 205.796 M 663.462 227.250 L 658.500 232.500 663.750 227.538 C 668.628 222.926, 669.459 222, 668.712 222 C 668.554 222, 666.192 224.363, 663.462 227.250 M 635.252 225 C 635.544 226.082, 637.167 226.528, 641.079 226.600 L 646.500 226.700 641.519 226.286 C 638.780 226.058, 636.158 225.338, 635.693 224.686 C 635.106 223.862, 634.971 223.958, 635.252 225 M 557.596 255.845 C 556.593 257.468, 555.725 280.687, 556.609 282.253 C 557.099 283.121, 564.068 290.595, 572.096 298.861 L 586.691 313.890 592.096 314.414 L 597.500 314.937 592.657 313.930 C 584.622 312.258, 578.916 306.397, 583.582 304.607 C 584.452 304.273, 602.902 304, 624.582 304 L 664 304 664 285 L 664 266 614.125 266 C 586.694 266, 562.805 265.711, 561.038 265.358 C 557.889 264.728, 557.833 264.620, 558.163 259.857 C 558.514 254.804, 558.463 254.443, 557.596 255.845 M 174 257.395 C 174 257.612, 175.800 257.962, 178 258.171 C 180.200 258.381, 182 258.203, 182 257.776 C 182 257.349, 180.200 257, 178 257 C 175.800 257, 174 257.178, 174 257.395 M 183.910 269.685 C 184.391 271.362, 186.368 275.037, 188.303 277.850 C 190.238 280.663, 191.974 283.398, 192.161 283.926 C 192.347 284.454, 198.350 285.164, 205.500 285.504 C 225.063 286.432, 223.293 285.202, 222.836 297.547 L 222.449 308 328.877 308 L 435.304 308 434.652 297.344 C 434.293 291.484, 434 282.709, 434 277.844 L 434 269 309.700 269 C 215.375 269, 185.115 268.715, 184.217 267.817 C 183.307 266.907, 183.236 267.338, 183.910 269.685 M 556 299.800 C 556 304.766, 556.998 305.594, 562.460 305.160 C 566.485 304.840, 567 304.526, 567 302.399 C 567 300.939, 566.416 300, 565.508 300 C 564.688 300, 563.455 299.100, 562.768 298 C 562.009 296.785, 560.436 296, 558.759 296 C 556.231 296, 556 296.318, 556 299.800 M 573.500 311 C 576.766 314.300, 579.662 317, 579.937 317 C 580.212 317, 577.766 314.300, 574.500 311 C 571.234 307.700, 568.338 305, 568.063 305 C 567.788 305, 570.234 307.700, 573.500 311 M 440 308.961 C 438.829 309.724, 438.747 310.337, 439.624 311.754 C 440.682 313.462, 440.065 322.268, 438.799 323.534 C 438.366 323.967, 360.395 359.731, 312.500 381.466 C 304.800 384.960, 295.575 389.150, 292 390.778 C 288.425 392.405, 275.375 398.332, 263 403.949 C 250.625 409.565, 237.585 415.499, 234.022 417.134 C 230.459 418.770, 225.148 421.698, 222.221 423.642 C 219.293 425.585, 216.251 426.927, 215.461 426.623 C 214.671 426.320, 214.131 426.535, 214.262 427.100 C 214.741 429.169, 204.743 431.998, 196.950 431.999 C 192.412 432, 188.921 432.479, 188.200 433.200 C 187.402 433.998, 187 438.356, 187 446.200 L 187 458 197.943 458 C 207.328 458, 209.073 457.744, 210.193 456.201 C 211.596 454.269, 213.092 453.519, 234.500 444.017 C 242.200 440.599, 252.325 436.075, 257 433.965 C 261.675 431.854, 273.150 426.777, 282.500 422.683 C 291.850 418.588, 302.650 413.783, 306.500 412.004 C 310.350 410.226, 318.138 406.785, 323.807 404.357 C 329.475 401.930, 337.575 398.342, 341.807 396.385 C 346.038 394.427, 352.200 391.705, 355.500 390.335 C 358.800 388.965, 366.900 385.426, 373.500 382.472 C 403.269 369.146, 433.044 356, 433.457 356 C 433.706 356, 436.806 354.617, 440.345 352.926 C 446.317 350.074, 447.436 349.876, 455.892 350.176 C 460.904 350.354, 465.089 350.500, 465.193 350.500 C 465.296 350.500, 465.633 340.982, 465.941 329.350 L 466.500 308.199 454 308.091 C 447.125 308.032, 440.825 308.423, 440 308.961 M 217.250 314.557 L 213 318.860 213.134 371.680 C 213.208 401.056, 213.613 422.281, 214.046 419.500 C 214.474 416.750, 214.864 393.144, 214.912 367.042 L 215 319.584 218.614 315.883 C 220.601 313.848, 222.064 311.749, 221.864 311.219 C 221.664 310.688, 219.588 312.191, 217.250 314.557 M 448.453 316.755 C 446.777 318.265, 444.527 319.995, 443.453 320.601 C 439.839 322.638, 440.446 326.500, 445.040 330.697 C 451.786 336.859, 452.304 336.907, 457.890 331.899 C 460.589 329.480, 462.842 327.147, 462.898 326.715 C 463.054 325.517, 453.639 314.017, 452.500 314.013 C 451.950 314.011, 450.129 315.245, 448.453 316.755 M 589.750 336.723 C 591.538 336.945, 594.462 336.945, 596.250 336.723 C 598.038 336.502, 596.575 336.320, 593 336.320 C 589.425 336.320, 587.962 336.502, 589.750 336.723 M 193.798 439.250 C 192.456 441.038, 191.037 443.045, 190.644 443.711 C 189.870 445.024, 195.537 453.566, 197.072 453.400 C 199.583 453.129, 200 452.921, 200 451.935 C 200 451.350, 201.350 449.735, 203 448.347 C 204.650 446.958, 206 445.522, 206 445.156 C 206 444.127, 198.118 436, 197.121 436 C 196.635 436, 195.140 437.462, 193.798 439.250" stroke="none" fill="#c5c7c6" fill-rule="evenodd"/><path d="M 169 183.500 L 169 220 265 220 L 361 220 361 207.500 L 361 195 365.500 195 C 369.633 195, 370 194.796, 370 192.500 C 370 190.500, 370.500 190, 372.500 190 C 374.796 190, 375 189.633, 375 185.500 C 375 181.401, 374.783 181, 372.570 181 C 370.810 181, 370.051 180.379, 369.820 178.750 C 369.563 176.943, 368.762 176.439, 365.750 176.190 L 362 175.879 361.844 163.690 C 361.759 156.985, 361.776 150.488, 361.882 149.250 L 362.076 147 265.538 147 L 169 147 169 183.500 M 431.396 183.046 C 430.838 193.293, 430.031 200.373, 429.373 200.796 C 428.772 201.183, 427.543 202.937, 426.643 204.694 C 425.743 206.450, 423.768 208.479, 422.253 209.201 C 420.013 210.270, 419.444 211.274, 419.200 214.594 C 418.998 217.350, 419.404 219.090, 420.450 219.959 C 421.480 220.813, 422.002 222.967, 422.006 226.372 C 422.014 234.390, 423.733 239.042, 428.516 244 C 431.264 246.849, 432.975 249.601, 433.179 251.500 C 433.474 254.254, 433.848 254.525, 437.750 254.807 L 442 255.115 442 262.557 L 442 270 446.864 270 C 449.538 270, 453.926 269.540, 456.614 268.978 C 459.301 268.415, 474.100 265.375, 489.500 262.222 L 517.500 256.489 518.048 251.730 C 518.444 248.288, 519.233 246.525, 520.899 245.358 C 522.706 244.092, 522.912 243.559, 521.852 242.887 C 521.108 242.416, 509.573 242.024, 496.219 242.015 C 475.567 242.002, 471.851 241.776, 471.362 240.500 C 471.045 239.675, 470.159 239, 469.393 239 C 468.627 239, 468 238.100, 468 237 C 468 235.889, 468.667 235, 469.500 235 C 470.325 235, 471 234.325, 471 233.500 C 471 232.279, 472.660 232, 479.941 232 C 484.859 232, 489.153 231.562, 489.483 231.027 C 489.814 230.491, 491.623 229.324, 493.503 228.432 L 496.921 226.810 496.938 208.655 C 496.947 198.670, 497.256 184.988, 497.623 178.250 L 498.292 166 465.309 166 L 432.325 166 431.396 183.046 M 518 168.943 C 518 170.665, 518.766 172.429, 519.845 173.193 C 521.341 174.253, 521.798 176.326, 522.259 184.154 C 522.668 191.089, 523.345 194.601, 524.664 196.621 C 526.259 199.065, 526.464 201.233, 526.222 213.141 C 525.962 225.965, 526.070 226.887, 527.887 227.464 C 531.991 228.767, 534.918 227.034, 536.027 222.644 C 536.604 220.365, 537.713 216.925, 538.493 215 C 541.964 206.428, 552 175.500, 552 173.372 C 552 172.077, 551.100 170.455, 550 169.768 C 548.900 169.081, 548 167.952, 548 167.259 C 548 166.303, 544.393 166, 533 166 L 518 166 518 168.943 M 565.292 167.750 C 564.937 168.713, 563.224 170.850, 561.484 172.500 C 559.744 174.150, 557.377 177.975, 556.222 181 C 544.728 211.117, 542 219.371, 542 224.030 L 542 229.003 580.750 228.418 C 602.063 228.096, 620.035 227.670, 620.689 227.471 C 622.256 226.995, 621.236 209.115, 619.521 207 C 618.852 206.175, 614.078 198.529, 608.912 190.009 C 603.746 181.490, 598.727 173.727, 597.759 172.759 C 596.792 171.792, 596 169.875, 596 168.500 L 596 166 580.969 166 C 567.565 166, 565.867 166.190, 565.292 167.750 M 577.620 184.547 C 577.279 185.436, 577 190.596, 577 196.014 C 577 204.577, 577.229 205.918, 578.750 206.266 C 581.801 206.963, 608.789 206.532, 609.554 205.773 C 609.957 205.374, 607.327 200.199, 603.709 194.273 L 597.132 183.500 587.686 183.215 C 579.739 182.976, 578.142 183.187, 577.620 184.547 M 534 241.321 C 534 243.196, 534.830 245.803, 535.845 247.115 C 538.207 250.168, 539.343 255.882, 537.927 257.588 C 536.445 259.373, 537.139 263.069, 539.197 264.359 C 541.595 265.862, 546.154 264.059, 547.732 260.983 C 548.573 259.344, 548.920 255.101, 548.753 248.500 L 548.500 238.500 541.250 238.206 L 534 237.912 534 241.321 M 169.667 258.667 C 169.300 259.033, 169 304.033, 169 358.667 L 169 458 177.970 458 L 186.940 458 187.220 445.250 L 187.500 432.500 196.500 431.935 C 201.450 431.624, 207.300 430.673, 209.500 429.820 C 213.535 428.256, 213.819 427.608, 212.924 422 C 212.793 421.175, 212.756 397.170, 212.842 368.656 C 212.995 318.326, 213.056 316.798, 214.933 316.307 C 215.996 316.029, 218.114 314, 219.641 311.797 C 222.095 308.256, 222.465 306.682, 222.835 298.225 C 223.357 286.285, 223.087 286.004, 211.059 285.991 C 198.566 285.979, 191.931 285.010, 191.259 283.100 C 190.949 282.220, 189.189 279.361, 187.348 276.748 C 185.506 274.134, 184 271.466, 184 270.819 C 184 270.172, 183.566 268.260, 183.035 266.571 C 182.504 264.882, 181.820 262.262, 181.516 260.750 C 180.995 258.164, 180.644 258, 175.648 258 C 172.725 258, 170.033 258.300, 169.667 258.667 M 500 264.922 C 493.675 266.412, 486.925 268.133, 485 268.746 C 483.075 269.360, 479.034 270.174, 476.020 270.556 C 473.006 270.938, 468.947 271.813, 467 272.500 C 465.053 273.187, 461.106 274.073, 458.230 274.468 L 453 275.188 453 291.633 L 453 308.078 497.500 307.937 L 542 307.796 542 292.440 L 542 277.085 536.323 271.542 C 531.524 266.857, 530.079 266, 526.976 266 C 524.741 266, 522.404 265.218, 521 264 C 517.993 261.392, 514.294 261.554, 500 264.922 M 200.746 295.799 C 195.846 300.631, 195.856 303.477, 200.792 308.297 C 205.850 313.236, 208.713 313.167, 213.384 307.997 C 218.072 302.807, 218.002 300.248, 213.044 295.661 C 208.079 291.067, 205.516 291.096, 200.746 295.799" stroke="none" fill="#aa2b28" fill-rule="evenodd"/><path d="M -0 292.501 L -0 585.003 350.250 584.751 L 700.500 584.500 700.752 292.250 L 701.003 0 350.502 0 L 0 0 -0 292.501 M 0.493 293 C 0.493 453.875, 0.609 519.688, 0.750 439.250 C 0.891 358.812, 0.891 227.187, 0.750 146.750 C 0.609 66.312, 0.493 132.125, 0.493 293 M 90 283.500 L 90 518 129.500 518 L 169 518 169 488 L 169 458 188.943 458 C 206.993 458, 209.011 457.829, 210.193 456.201 C 211.596 454.269, 213.092 453.519, 234.500 444.017 C 242.200 440.599, 252.325 436.075, 257 433.965 C 261.675 431.854, 273.150 426.777, 282.500 422.683 C 291.850 418.588, 302.650 413.783, 306.500 412.004 C 310.350 410.226, 318.138 406.785, 323.807 404.357 C 329.475 401.930, 337.575 398.342, 341.807 396.385 C 346.038 394.427, 352.200 391.705, 355.500 390.335 C 358.800 388.965, 366.900 385.426, 373.500 382.472 C 403.269 369.146, 433.044 356, 433.457 356 C 433.706 356, 436.806 354.617, 440.345 352.926 C 446.317 350.074, 447.436 349.876, 455.892 350.176 C 460.904 350.354, 465.093 350.500, 465.201 350.500 C 465.309 350.500, 465.645 341.050, 465.949 329.500 L 466.500 308.500 511.966 308.240 C 551.015 308.016, 557.550 307.769, 558.266 306.490 C 558.803 305.529, 560.592 305.011, 563.300 305.032 C 567.122 305.061, 568.153 305.691, 574.750 312.038 C 581.841 318.859, 583.176 321.424, 580.846 323.754 C 579.289 325.311, 582.380 333.452, 585.306 335.502 C 586.615 336.419, 589.717 337, 593.299 337 C 598.437 337, 599.512 336.642, 602.077 334.077 C 604.477 331.676, 605 330.315, 605 326.459 C 605 322.363, 604.522 321.290, 601.250 318.040 C 598.347 315.156, 596.423 314.170, 592.732 313.674 C 585.037 312.640, 578.787 306.447, 583.582 304.607 C 584.452 304.273, 602.902 304, 624.582 304 L 664 304 664 285 L 664 266 614.125 266 C 586.694 266, 562.844 265.719, 561.125 265.375 C 558.192 264.788, 558 264.479, 558 260.344 C 558 257.349, 558.481 255.753, 559.500 255.362 C 560.623 254.931, 561.004 253.115, 561.015 248.143 C 561.024 244.489, 561.412 240.899, 561.878 240.163 C 562.559 239.089, 568.125 238.886, 590.297 239.127 C 614.754 239.394, 618.075 239.242, 619.687 237.783 C 621.194 236.419, 624.454 236.083, 638.726 235.819 L 655.947 235.500 662.474 229.029 L 669 222.558 669 204.195 L 669 185.833 662.933 178.497 C 659.595 174.463, 656.184 170.901, 655.351 170.581 C 652.411 169.453, 646.945 169.979, 646.383 171.444 C 646.079 172.238, 646.768 176.598, 647.915 181.134 C 649.062 185.670, 650 190.213, 650 191.230 C 650 192.247, 650.854 194.754, 651.898 196.800 C 653.278 199.505, 653.993 203.822, 654.518 212.612 L 655.239 224.704 652.870 225.338 C 651.566 225.687, 647.331 225.979, 643.457 225.986 L 636.414 226 626.394 195.750 L 616.375 165.500 591.296 165.233 L 566.216 164.966 565.571 161.526 C 564.797 157.403, 560.857 154, 556.856 154 C 553.209 154, 548.424 158.186, 546.944 162.671 L 545.822 166.069 483.161 165.953 L 420.500 165.836 419.590 172.439 L 418.679 179.041 415.340 178.816 C 413.503 178.692, 412 178.233, 412 177.796 C 412 177.358, 408.400 177, 404 177 L 396 177 396 173 L 396 169 387.500 169 L 379 169 379 175 L 379 181 374.500 181 C 370.367 181, 370 180.796, 370 178.500 C 370 176.250, 369.600 176, 366 176 L 362 176 362 161.500 L 362 147 265.500 147 L 169 147 169 98 L 169 49 129.500 49 L 90 49 90 283.500 M 370 192.500 C 370 194.796, 369.633 195, 365.500 195 L 361 195 361 207.500 L 361 220 265.617 220 L 170.233 220 169.630 222.250 C 169.299 223.488, 169.021 231.813, 169.014 240.750 L 169 257 175.439 257 L 181.877 257 182.565 261.750 C 182.943 264.363, 183.701 267.063, 184.249 267.750 C 185.036 268.738, 211.322 269, 309.643 269 L 434.040 269 433.399 259.250 L 432.758 249.500 428.509 245 C 423.673 239.878, 422 235.759, 422 228.973 C 422 225.990, 421.446 223.785, 420.500 223 C 419.291 221.996, 419 218.894, 419 206.986 L 419 192.217 416.404 191.565 C 414.977 191.207, 413.238 191.388, 412.540 191.967 C 411.843 192.546, 407.948 193.155, 403.886 193.320 L 396.500 193.622 396.500 197.561 L 396.500 201.500 387.750 201.789 L 379 202.078 379 196.039 L 379 190 374.500 190 C 370.367 190, 370 190.204, 370 192.500 M 222 310.208 C 222 311.422, 220.456 314.010, 218.568 315.958 L 215.136 319.500 214.890 372.941 C 214.708 412.465, 214.943 426.481, 215.792 426.764 C 216.423 426.974, 219.326 425.563, 222.242 423.628 C 225.158 421.692, 230.459 418.770, 234.022 417.134 C 237.585 415.499, 250.625 409.565, 263 403.949 C 275.375 398.332, 288.200 392.505, 291.500 391 C 294.800 389.495, 305.150 384.797, 314.500 380.560 C 412.643 336.085, 439.052 323.624, 439.452 321.603 C 440.712 315.235, 440.838 313.018, 439.967 312.480 C 439.435 312.151, 439 311.009, 439 309.941 C 439 308.032, 437.234 308, 330.500 308 L 222 308 222 310.208" stroke="none" fill="#eeeeee" fill-rule="evenodd"/></svg>