<!-- icon666.com - MILLIONS vector ICONS FREE --><svg viewBox="0 0 58 58" xmlns="http://www.w3.org/2000/svg"><g id="Page-1" fill="none" fill-rule="evenodd"><g id="042---AC-Vent" fill-rule="nonzero"><rect id="Rectangle-path" fill="#84b5cb" height="58" rx="5" width="58" style="fill: rgb(104, 177, 252);"></rect><g fill="#285680"><circle id="Oval" cx="6.5" cy="6.5" r="2.5" fill="#285680" style="fill: rgb(41, 46, 61);"></circle><circle id="Oval" cx="51.5" cy="6.5" r="2.5" fill="#285680" style="fill: rgb(41, 46, 61);"></circle><circle id="Oval" cx="6.5" cy="51.5" r="2.5" fill="#285680" style="fill: rgb(41, 46, 61);"></circle><circle id="Oval" cx="51.5" cy="51.5" r="2.5" fill="#285680" style="fill: rgb(41, 46, 61);"></circle></g><path id="Shape" d="m29 13h19.434c.3511872.0002776.6764898.1847549.857.486l1.8 3c.1850542.3088279.189814.6932921.0124622 1.0066067-.1773518.3133147-.5094349.5071089-.8694622.5073933h-42.468c-.36002733-.0002844-.69211037-.1940786-.86946221-.5073933-.17735183-.3133146-.17259201-.6977788.01246221-1.0066067l1.8-3c.18051016-.3012451.50581281-.4857224.857-.486z" fill="#2980ba" style="fill: rgb(251, 211, 165);"></path><path id="Shape" d="m29 22h19.434c.3511872.0002776.6764898.1847549.857.486l1.8 3c.1850542.3088279.189814.6932921.0124622 1.0066067-.1773518.3133147-.5094349.5071089-.8694622.5073933h-42.468c-.36002733-.0002844-.69211037-.1940786-.86946221-.5073933-.17735183-.3133146-.17259201-.6977788.01246221-1.0066067l1.8-3c.18051016-.3012451.50581281-.4857224.857-.486z" fill="#2980ba" style="fill: rgb(251, 211, 165);"></path><path id="Shape" d="m29 31h19.434c.3511872.0002776.6764898.1847549.857.486l1.8 3c.1850542.3088279.189814.6932921.0124622 1.0066067-.1773518.3133147-.5094349.5071089-.8694622.5073933h-42.468c-.36002733-.0002844-.69211037-.1940786-.86946221-.5073933-.17735183-.3133146-.17259201-.6977788.01246221-1.0066067l1.8-3c.18051016-.3012451.50581281-.4857224.857-.486z" fill="#2980ba" style="fill: rgb(251, 211, 165);"></path><path id="Shape" d="m29 40h19.434c.3511872.0002776.6764898.1847549.857.486l1.8 3c.1850542.3088279.189814.6932921.0124622 1.0066067-.1773518.3133147-.5094349.5071089-.8694622.5073933h-42.468c-.36002733-.0002844-.69211037-.1940786-.86946221-.5073933-.17735183-.3133146-.17259201-.6977788.01246221-1.0066067l1.8-3c.18051016-.3012451.50581281-.4857224.857-.486z" fill="#2980ba" style="fill: rgb(251, 211, 165);"></path></g></g></svg>