<svg width="40" height="40" viewBox="0 0 40 40" fill="none" xmlns="http://www.w3.org/2000/svg">
<g clip-path="url(#clip0_200_236)">
<rect y="18.5" width="23.3333" height="21.5833" fill="#7595FD"/>
<path d="M9.6163 5L8 6.49405L10.8473 11.0456L12.6938 10.7953L23.9648 21.215L23.0034 22.0684C22.511 22.5235 22.511 23.2131 23.0034 23.6683L23.5032 24.1314C23.9956 24.5865 24.7489 24.5865 25.1182 24.1314L26.5807 25.4821C26.4576 26.1648 26.5807 26.9761 27.1962 27.5451L33.8509 33.6612C35.205 34.9129 37.4208 34.9129 38.7749 33.6612C40.3752 32.2958 40.3604 30.2544 39.0063 29.0027L32.3897 22.8501C31.7742 22.2812 30.8965 22.0536 30.1579 22.2812L28.5416 20.9305C28.9109 20.4753 28.9109 19.7789 28.5416 19.4364L28.08 19.0109C27.9681 18.903 27.8337 18.8172 27.685 18.7585C27.5363 18.6999 27.3763 18.6697 27.2146 18.6697C27.0529 18.6697 26.8929 18.6999 26.7442 18.7585C26.5955 18.8172 26.4611 18.903 26.3492 19.0109L25.5417 19.7573L14.2707 9.33878L14.5391 7.63195L9.6163 5ZM33.6207 5.03527C31.192 4.84866 27.9717 6.33702 26.4649 7.63081C24.6111 9.34447 24.9139 11.585 26.3874 13.7481L23.7728 16.1661L25.6192 18.0858C26.604 17.2892 28.0566 17.2892 29.0414 18.0858L29.5424 18.5477L29.6581 18.6547L30.7353 17.6591C32.9609 18.8686 35.2776 19.0427 37.0441 17.4099C38.7675 15.9306 40.6362 12.2825 39.7745 10.1205L36.3129 13.4272C35.8205 13.8824 35.0745 13.8824 34.5821 13.4272L31.0036 10.1205C30.8869 10.0171 30.7941 9.89288 30.7306 9.75541C30.6672 9.61794 30.6345 9.47003 30.6345 9.32058C30.6345 9.17112 30.6672 9.02321 30.7306 8.88574C30.7941 8.74827 30.8869 8.62408 31.0036 8.52064L34.5834 5.21392C34.2756 5.11379 33.9679 5.06258 33.6207 5.03527ZM20.0798 19.2237L15.6162 23.3485C15.1365 23.2504 14.6463 23.2027 14.155 23.2063C10.7082 23.2063 8 25.7096 8 28.8957C8 32.0818 10.7082 34.5852 14.155 34.5852C17.6018 34.5852 20.31 32.0818 20.31 28.8957C20.31 28.312 20.2102 27.751 20.0404 27.2242L22.6562 24.8062L22.2722 24.3442C21.2874 23.4339 21.2948 22.0547 22.1565 21.1433L20.0798 19.2237ZM29.62 24.4159C29.7739 24.4159 29.9191 24.4432 30.0422 24.5581L37.3137 31.2785C37.5599 31.5061 37.5599 31.8679 37.3137 32.0955C37.0675 32.3231 36.6736 32.3231 36.4274 32.0955L29.1584 25.3751C28.9122 25.1475 28.9122 24.7857 29.1584 24.5581C29.2815 24.4443 29.4661 24.4159 29.62 24.4159ZM15.0019 25.9429L17.3482 28.1129L16.5013 31.0634L13.3093 31.8463L10.9618 29.6763L11.8087 26.7258L15.0019 25.9429Z" fill="#292E3D"/>
</g>
<defs>
<clipPath id="clip0_200_236">
<rect width="40" height="40" fill="white"/>
</clipPath>
</defs>
</svg>
