<svg width="14" height="13" viewBox="0 0 14 13" fill="none" xmlns="http://www.w3.org/2000/svg">
<path d="M14 7H9V10.234C9.00113 10.7072 9.13604 11.1705 9.38914 11.5704C9.64225 11.9703 10.0033 12.2905 10.4305 12.494L11.5 13L12.5695 12.4935C12.9967 12.29 13.3577 11.9698 13.6109 11.5699C13.864 11.17 13.9989 10.7067 14 10.2335V7ZM11.5 11.893L10.8585 11.5895C10.6021 11.4675 10.3855 11.2755 10.2336 11.0357C10.0816 10.7958 10.0007 10.5179 10 10.234V8H13V10.234C12.9992 10.5178 12.9182 10.7957 12.7663 11.0354C12.6144 11.2752 12.3978 11.4671 12.1415 11.589L11.5 11.893ZM7.5 7H1.5C1.23478 7 0.98043 7.10536 0.792893 7.29289C0.605357 7.48043 0.5 7.73478 0.5 8V10.5C0.5 10.7652 0.605357 11.0196 0.792893 11.2071C0.98043 11.3946 1.23478 11.5 1.5 11.5H7.5V10.5H1.5V8H7.5V7ZM12.5 0H10C9.73478 0 9.48043 0.105357 9.29289 0.292893C9.10536 0.48043 9 0.734784 9 1V5.5H10V1H12.5V5.5H13.5V1C13.5 0.734784 13.3946 0.48043 13.2071 0.292893C13.0196 0.105357 12.7652 0 12.5 0ZM6.5 0H1.5C1.23478 0 0.98043 0.105357 0.792893 0.292893C0.605357 0.48043 0.5 0.734784 0.5 1V4.5C0.5 4.76522 0.605357 5.01957 0.792893 5.20711C0.98043 5.39464 1.23478 5.5 1.5 5.5H6.5C6.76522 5.5 7.01957 5.39464 7.20711 5.20711C7.39464 5.01957 7.5 4.76522 7.5 4.5V1C7.5 0.734784 7.39464 0.48043 7.20711 0.292893C7.01957 0.105357 6.76522 0 6.5 0ZM1.5 4.5V1H6.5V4.5H1.5Z" fill="black"/>
</svg>
