<svg xmlns="http://www.w3.org/2000/svg" width="1183" height="181" viewBox="0 0 1183 181" version="1.1"><path d="M 27.667 1.667 C 26.395 2.939, 27.008 21.124, 28.580 28.733 C 30.494 37.998, 33.752 44.691, 39.255 50.661 C 44.654 56.519, 50.029 59.577, 59.100 61.952 C 64.871 63.463, 65.730 63.899, 63 63.930 C 57.285 63.996, 47.108 61.174, 40.620 57.725 C 28.948 51.520, 15.695 36.226, 6.909 18.821 C 5.293 15.619, 3.311 13, 2.505 13 C 0.011 13, -0.369 17.827, 0.814 34.467 C 1.939 50.296, 4.950 65.940, 8.490 74.350 C 9.999 77.935, 9.993 78.285, 8.401 79.449 C 6.914 80.536, 6.770 81.981, 7.288 90.599 C 7.962 101.826, 10.891 113.375, 14.743 120 C 21.088 130.912, 32.480 139.735, 45 143.435 C 56.364 146.793, 63.420 147.175, 90.500 145.902 C 118.164 144.600, 134.038 145.353, 146.500 148.555 C 154.645 150.649, 175.518 160.973, 180.773 165.508 C 184.713 168.908, 188 169.621, 188 167.076 C 188 164.918, 178.757 142.346, 174.491 134.087 C 171.998 129.260, 168.398 123.489, 166.491 121.261 C 162.066 116.091, 153.784 110.595, 145.777 107.513 L 139.500 105.098 143.685 105.049 C 156.724 104.897, 179.718 113.300, 197.313 124.647 C 207.151 130.992, 207.620 130.258, 202.892 115.923 C 198.655 103.073, 192.646 91.814, 186.447 85.105 C 182.211 80.521, 181.462 79.193, 182.339 77.813 C 183.696 75.676, 177.607 55.307, 172.053 43.405 C 167.430 33.500, 162.829 28.247, 155.268 24.244 C 141.698 17.061, 133.974 16.551, 108.155 21.134 C 77.401 26.594, 60.335 25.555, 46.375 17.374 C 41.695 14.631, 34.565 7.333, 32.817 3.498 C 31.740 1.135, 29.128 0.206, 27.667 1.667 M 470.500 3.069 C 450.203 4.661, 434.863 9.459, 424.194 17.553 C 412.025 26.784, 405.789 39.253, 402.464 61 C 400.519 73.724, 400.517 109.253, 402.460 122 C 409.507 168.218, 435.024 182.680, 506 180.685 C 528.493 180.052, 539.950 178.513, 551.979 174.507 C 571.763 167.918, 583.506 154.425, 588.995 131.976 C 593.730 112.607, 593.715 68.597, 588.967 50.500 C 580.794 19.347, 561.603 5.919, 521.073 2.996 C 505.664 1.885, 485.218 1.915, 470.500 3.069 M 673.043 3.070 C 662.127 5.017, 652.579 10.984, 648.929 18.140 C 646.728 22.453, 581 177.594, 581 178.475 C 581 178.779, 595.056 178.910, 612.236 178.764 L 643.473 178.500 664.167 122 C 675.550 90.925, 685.118 65.050, 685.431 64.500 C 685.810 63.833, 686.186 63.833, 686.559 64.500 C 686.867 65.050, 696.429 90.925, 707.809 122 L 728.500 178.500 759.750 178.764 C 776.938 178.910, 791 178.797, 791 178.514 C 791 176.796, 723.513 18.862, 721.441 15.732 C 718.433 11.187, 711.454 6.523, 704.500 4.412 C 698.302 2.531, 680.358 1.765, 673.043 3.070 M 852 3.036 C 820.300 5.522, 801.482 15.073, 791.805 33.589 C 784.352 47.849, 782.012 61.685, 782.012 91.500 C 782.012 104.796, 782.543 115.985, 783.460 122 C 790.504 168.199, 816.143 182.725, 887 180.665 C 910.880 179.970, 919.134 178.907, 931.587 174.920 C 952.432 168.246, 963.971 155.482, 969.936 132.500 C 974.736 114.003, 974.794 69.120, 970.041 50.622 C 962.060 19.562, 942.588 5.918, 902.073 2.996 C 886.868 1.900, 866.279 1.916, 852 3.036 M 1066.500 3.100 C 1054.808 4.770, 1045.437 9.817, 1041.157 16.750 C 1039.884 18.812, 1028.377 45.700, 1015.585 76.500 L 992.327 132.500 983.664 132.789 L 975 133.078 975 156.039 L 975 179 1079 179 L 1183 179 1183 156 L 1183 133 1174.250 132.982 L 1165.500 132.964 1142.591 77.232 C 1129.992 46.579, 1118.517 19.585, 1117.091 17.245 C 1112.378 9.508, 1103.784 4.911, 1090.600 3.077 C 1081.813 1.855, 1075.179 1.861, 1066.500 3.100 M 205 4.449 C 205 4.710, 219.331 24.138, 236.848 47.623 L 268.695 90.323 236.539 133.412 C 218.854 157.110, 204.046 177.063, 203.633 177.750 C 203.038 178.741, 210.200 178.990, 238.191 178.951 L 273.500 178.902 287.500 156.895 C 295.200 144.792, 301.995 134.465, 302.600 133.947 C 303.357 133.298, 308.305 140.171, 318.480 156.002 L 333.261 179 368.130 179 C 387.309 179, 402.989 178.662, 402.976 178.250 C 402.963 177.838, 388.338 157.937, 370.476 134.027 C 352.614 110.116, 338 90.438, 338 90.296 C 338 90.155, 351.992 71.283, 369.093 48.360 C 386.194 25.436, 400.417 6.077, 400.700 5.340 C 401.124 4.236, 395.073 4, 366.291 4 L 331.367 4 317.438 25.954 C 309.777 38.029, 303.183 47.583, 302.785 47.185 C 302.388 46.788, 296.055 37.021, 288.714 25.481 L 275.365 4.500 240.183 4.237 C 220.832 4.093, 205 4.188, 205 4.449 M 462.500 7.142 C 444.988 9.367, 430.847 15.219, 422.186 23.826 C 415.290 30.680, 411.949 36.696, 408.576 48.334 C 402.666 68.728, 402.397 112.311, 408.055 132.931 C 415.203 158.988, 429.304 170.473, 460.328 175.504 C 472.930 177.548, 519.677 177.564, 533.176 175.530 C 567.543 170.349, 582.952 154.590, 587.961 119.500 C 589.494 108.762, 589.231 72.096, 587.542 61 C 582.475 27.717, 567.017 12.697, 532.500 7.514 C 521.285 5.829, 474.778 5.583, 462.500 7.142 M 668.624 7.637 C 662.275 9.586, 656.771 13.114, 653.681 17.212 C 651.647 19.910, 586 173.313, 586 175.368 C 586 175.716, 598.375 176, 613.500 176 C 628.625 176, 641 175.866, 641 175.702 C 641 173.812, 683.343 60.229, 684.466 59.105 C 685.830 57.741, 686.166 57.738, 687.501 59.073 C 688.327 59.899, 697.789 84.633, 708.528 114.037 C 719.267 143.442, 728.777 169.412, 729.662 171.750 L 731.272 176 758.636 176 C 773.686 176, 786 175.743, 786 175.429 C 786 173.406, 720.319 19.856, 718.323 17.212 C 715.136 12.992, 709.701 9.583, 702.972 7.584 C 695.953 5.500, 675.481 5.531, 668.624 7.637 M 843.500 7.142 C 839.650 7.631, 833.125 8.953, 829 10.079 C 801.065 17.705, 789.214 34.291, 785.860 70.455 C 784.464 85.499, 785.342 114.590, 787.536 126 C 793.406 156.532, 808.179 170.128, 841.328 175.504 C 853.913 177.545, 900.722 177.566, 914 175.536 C 948.113 170.321, 963.482 155.236, 968.542 122 C 970.473 109.318, 970.478 73.750, 968.551 60.968 C 963.547 27.772, 948.022 12.698, 913.500 7.514 C 902.285 5.829, 855.778 5.583, 843.500 7.142 M 1061.024 7.603 C 1053.203 9.705, 1047.256 13.523, 1044.172 18.421 C 1042.703 20.756, 1030.933 48.167, 1018.017 79.333 L 994.533 136 986.246 136 L 977.958 136 978.229 155.750 L 978.500 175.500 1079 175.500 L 1179.500 175.500 1179.771 155.750 L 1180.042 136 1171.628 136 C 1165.828 136, 1163.060 135.612, 1162.718 134.750 C 1152.619 109.272, 1115.219 20.444, 1113.480 17.805 C 1110.495 13.276, 1104.434 9.608, 1096.540 7.552 C 1088.824 5.543, 1068.583 5.572, 1061.024 7.603 M 30 11.669 C 30 19.850, 32.842 33.803, 35.695 39.630 C 37.150 42.601, 40.637 47.204, 43.445 49.860 C 54.460 60.277, 69.678 62.455, 100 57.954 C 111.555 56.239, 134.989 55.658, 142.843 56.893 C 152.089 58.346, 163.987 62.899, 171.894 68.010 C 175.252 70.181, 178 71.461, 178 70.855 C 178 68.561, 170.778 48.294, 167.817 42.280 C 162.387 31.251, 152.207 24.230, 138.149 21.819 C 131.914 20.750, 129.631 20.870, 117.813 22.892 C 85.256 28.463, 72.053 29.279, 60.103 26.463 C 50.518 24.203, 40.720 18.628, 34.943 12.146 L 30 6.601 30 11.669 M 212 8.303 C 212 8.470, 225.699 27, 242.442 49.480 L 272.885 90.353 271.018 92.927 C 269.991 94.342, 255.842 113.266, 239.576 134.980 C 223.309 156.695, 210 174.814, 210 175.245 C 210 175.676, 223.821 175.910, 240.714 175.764 L 271.427 175.500 286.964 151.283 C 295.509 137.964, 302.792 127.052, 303.150 127.033 C 303.507 127.015, 310.897 138.025, 319.571 151.500 L 335.342 176 366.171 176 C 383.127 176, 397 175.819, 397 175.598 C 397 175.377, 382.797 156.199, 365.438 132.980 C 348.079 109.762, 334.091 90.255, 334.354 89.632 C 334.617 89.010, 348.280 70.500, 364.718 48.500 L 394.604 8.500 364.562 8.235 C 348.039 8.089, 334.024 8.161, 333.417 8.394 C 332.810 8.626, 325.870 18.965, 317.995 31.368 C 310.121 43.771, 303.372 53.730, 302.997 53.498 C 302.623 53.267, 295.885 42.935, 288.025 30.539 L 273.732 8 242.866 8 C 225.890 8, 212 8.136, 212 8.303 M 4.006 29.516 C 4.017 46.376, 8.406 67.354, 14.196 78.216 C 19.899 88.917, 31.658 97.638, 45.563 101.481 C 55.236 104.154, 76.025 104.486, 107.853 102.475 C 141.013 100.380, 151.215 100.993, 166.077 105.972 C 174.878 108.921, 193.062 117.523, 198.250 121.191 C 201.903 123.775, 201.860 122.481, 197.928 111.614 C 194.020 100.815, 188.965 92.491, 182 85.384 C 175.191 78.437, 169.917 74.754, 160.675 70.491 C 144.077 62.837, 128.750 61.448, 100.500 65.038 C 77.689 67.937, 59.383 68.007, 49.787 65.231 C 33.448 60.504, 20.522 48.805, 8.039 27.444 L 4 20.532 4.006 29.516 M 483.009 46.099 C 472.437 48.169, 464.044 55.694, 460.254 66.500 C 457.637 73.961, 457.696 108.054, 460.341 116.103 C 463.049 124.348, 468.427 130.886, 475.457 134.482 C 481.194 137.417, 481.745 137.500, 495.428 137.500 C 504.445 137.500, 511.210 137.003, 514.260 136.117 C 520.837 134.207, 527.261 128.246, 531.059 120.531 C 533.725 115.117, 534.330 112.438, 535.118 102.584 C 536.447 85.952, 535.025 69.957, 531.621 63.238 C 528.229 56.546, 523.626 51.360, 518.965 48.982 C 511.934 45.395, 493.961 43.954, 483.009 46.099 M 864.009 46.099 C 853.650 48.127, 845.174 55.582, 841.384 66 C 839.242 71.887, 838.320 98.613, 839.907 108.839 C 841.881 121.562, 847.469 130.119, 856.796 134.699 C 862.219 137.362, 863.190 137.500, 876.500 137.500 C 893.535 137.500, 898.329 136.308, 904.844 130.450 C 912.303 123.744, 914.921 117.279, 916.153 102.518 C 917.564 85.617, 916.179 70.260, 912.607 63.210 C 909.229 56.544, 904.620 51.357, 899.965 48.982 C 892.934 45.395, 874.961 43.954, 864.009 46.099 M 487.981 49.070 C 476.239 50.091, 469.994 54.212, 464.820 64.353 C 459.622 74.542, 459.996 108.340, 465.431 119.447 C 468.716 126.163, 474.511 131.315, 480.792 133.105 C 486.648 134.775, 506.867 134.765, 512.841 133.091 C 518.574 131.484, 525.272 125.182, 528.730 118.142 C 531.490 112.521, 531.500 112.423, 531.500 91.500 C 531.500 72.088, 531.337 70.146, 529.339 65.824 C 525.859 58.295, 519.589 52.214, 513.611 50.570 C 507.136 48.790, 497.612 48.232, 487.981 49.070 M 868.981 49.070 C 857.238 50.091, 850.994 54.211, 845.819 64.355 C 842.758 70.355, 841.337 87.775, 842.707 102.512 C 843.960 116.001, 846.739 122.909, 853.103 128.356 C 858.757 133.196, 864.313 134.487, 879.030 134.380 C 893.800 134.272, 898.265 132.801, 904.363 126.033 C 911.936 117.626, 912.500 115.232, 912.500 91.500 C 912.500 72.088, 912.337 70.146, 910.339 65.824 C 906.859 58.295, 900.589 52.214, 894.611 50.570 C 888.136 48.790, 878.612 48.232, 868.981 49.070 M 1077.168 55.297 C 1076.335 56.302, 1047 134.498, 1047 135.716 C 1047 135.872, 1061.448 136, 1079.107 136 C 1109.279 136, 1111.173 135.895, 1110.531 134.250 C 1110.155 133.287, 1103.556 115.414, 1095.865 94.531 C 1088.174 73.648, 1081.403 55.986, 1080.818 55.281 C 1079.471 53.658, 1078.525 53.662, 1077.168 55.297 M 1065.183 95.840 C 1057.932 115.552, 1052 131.977, 1052 132.340 C 1052 132.703, 1064.150 133, 1079 133 C 1093.850 133, 1106 132.723, 1106 132.384 C 1106 130.940, 1079.500 60, 1078.961 60 C 1078.634 60, 1072.434 76.128, 1065.183 95.840 M 153 63.835 C 157.675 65.470, 161.644 66.670, 161.819 66.502 C 162.317 66.023, 150.903 61.918, 147.526 61.361 C 145.862 61.087, 148.325 62.200, 153 63.835 M 10.480 91.500 C 13.310 118.590, 23.992 132.953, 47 140.604 C 51.968 142.256, 56.611 142.440, 95 142.502 C 135.775 142.568, 137.843 142.663, 145.956 144.820 C 155.223 147.284, 170.296 154.044, 177.358 158.903 C 179.834 160.606, 182.093 162, 182.376 162 C 183.234 162, 173.063 137.891, 169.766 132.110 C 163.278 120.730, 154.376 113.804, 140.578 109.400 C 130.771 106.270, 120.670 106.029, 98.778 108.403 C 71.973 111.311, 53.526 110.286, 38.580 105.061 C 29.952 102.044, 24.370 98.489, 16.625 91.078 L 9.749 84.500 10.480 91.500" stroke="none" fill="#f2f5f8" fill-rule="evenodd"/><path d="M 462.500 7.142 C 444.988 9.367, 430.847 15.219, 422.186 23.826 C 415.290 30.680, 411.949 36.696, 408.576 48.334 C 402.666 68.728, 402.397 112.311, 408.055 132.931 C 415.203 158.988, 429.304 170.473, 460.328 175.504 C 472.930 177.548, 519.677 177.564, 533.176 175.530 C 567.543 170.349, 582.952 154.590, 587.961 119.500 C 589.494 108.762, 589.231 72.096, 587.542 61 C 582.475 27.717, 567.017 12.697, 532.500 7.514 C 521.285 5.829, 474.778 5.583, 462.500 7.142 M 668.624 7.637 C 662.275 9.586, 656.771 13.114, 653.681 17.212 C 651.647 19.910, 586 173.313, 586 175.368 C 586 175.716, 598.375 176, 613.500 176 C 628.625 176, 641 175.866, 641 175.702 C 641 173.812, 683.343 60.229, 684.466 59.105 C 685.830 57.741, 686.166 57.738, 687.501 59.073 C 688.327 59.899, 697.789 84.633, 708.528 114.037 C 719.267 143.442, 728.777 169.412, 729.662 171.750 L 731.272 176 758.636 176 C 773.686 176, 786 175.743, 786 175.429 C 786 173.406, 720.319 19.856, 718.323 17.212 C 715.136 12.992, 709.701 9.583, 702.972 7.584 C 695.953 5.500, 675.481 5.531, 668.624 7.637 M 843.500 7.142 C 839.650 7.631, 833.125 8.953, 829 10.079 C 801.065 17.705, 789.214 34.291, 785.860 70.455 C 784.464 85.499, 785.342 114.590, 787.536 126 C 793.406 156.532, 808.179 170.128, 841.328 175.504 C 853.913 177.545, 900.722 177.566, 914 175.536 C 948.113 170.321, 963.482 155.236, 968.542 122 C 970.473 109.318, 970.478 73.750, 968.551 60.968 C 963.547 27.772, 948.022 12.698, 913.500 7.514 C 902.285 5.829, 855.778 5.583, 843.500 7.142 M 1061.024 7.603 C 1053.203 9.705, 1047.256 13.523, 1044.172 18.421 C 1042.703 20.756, 1030.933 48.167, 1018.017 79.333 L 994.533 136 986.246 136 L 977.958 136 978.229 155.750 L 978.500 175.500 1079 175.500 L 1179.500 175.500 1179.771 155.750 L 1180.042 136 1171.628 136 C 1165.828 136, 1163.060 135.612, 1162.718 134.750 C 1152.619 109.272, 1115.219 20.444, 1113.480 17.805 C 1110.495 13.276, 1104.434 9.608, 1096.540 7.552 C 1088.824 5.543, 1068.583 5.572, 1061.024 7.603 M 30 11.669 C 30 19.850, 32.842 33.803, 35.695 39.630 C 37.150 42.601, 40.637 47.204, 43.445 49.860 C 54.460 60.277, 69.678 62.455, 100 57.954 C 111.555 56.239, 134.989 55.658, 142.843 56.893 C 152.089 58.346, 163.987 62.899, 171.894 68.010 C 175.252 70.181, 178 71.461, 178 70.855 C 178 68.561, 170.778 48.294, 167.817 42.280 C 162.387 31.251, 152.207 24.230, 138.149 21.819 C 131.914 20.750, 129.631 20.870, 117.813 22.892 C 85.256 28.463, 72.053 29.279, 60.103 26.463 C 50.518 24.203, 40.720 18.628, 34.943 12.146 L 30 6.601 30 11.669 M 212 8.303 C 212 8.470, 225.699 27, 242.442 49.480 L 272.885 90.353 271.018 92.927 C 269.991 94.342, 255.842 113.266, 239.576 134.980 C 223.309 156.695, 210 174.814, 210 175.245 C 210 175.676, 223.821 175.910, 240.714 175.764 L 271.427 175.500 286.964 151.283 C 295.509 137.964, 302.792 127.052, 303.150 127.033 C 303.507 127.015, 310.897 138.025, 319.571 151.500 L 335.342 176 366.171 176 C 383.127 176, 397 175.819, 397 175.598 C 397 175.377, 382.797 156.199, 365.438 132.980 C 348.079 109.762, 334.091 90.255, 334.354 89.632 C 334.617 89.010, 348.280 70.500, 364.718 48.500 L 394.604 8.500 364.562 8.235 C 348.039 8.089, 334.024 8.161, 333.417 8.394 C 332.810 8.626, 325.870 18.965, 317.995 31.368 C 310.121 43.771, 303.372 53.730, 302.997 53.498 C 302.623 53.267, 295.885 42.935, 288.025 30.539 L 273.732 8 242.866 8 C 225.890 8, 212 8.136, 212 8.303 M 4.006 29.516 C 4.017 46.376, 8.406 67.354, 14.196 78.216 C 19.899 88.917, 31.658 97.638, 45.563 101.481 C 55.236 104.154, 76.025 104.486, 107.853 102.475 C 141.013 100.380, 151.215 100.993, 166.077 105.972 C 174.878 108.921, 193.062 117.523, 198.250 121.191 C 201.903 123.775, 201.860 122.481, 197.928 111.614 C 194.020 100.815, 188.965 92.491, 182 85.384 C 175.191 78.437, 169.917 74.754, 160.675 70.491 C 144.077 62.837, 128.750 61.448, 100.500 65.038 C 77.689 67.937, 59.383 68.007, 49.787 65.231 C 33.448 60.504, 20.522 48.805, 8.039 27.444 L 4 20.532 4.006 29.516 M 483.009 46.099 C 472.437 48.169, 464.044 55.694, 460.254 66.500 C 457.637 73.961, 457.696 108.054, 460.341 116.103 C 463.049 124.348, 468.427 130.886, 475.457 134.482 C 481.194 137.417, 481.745 137.500, 495.428 137.500 C 504.445 137.500, 511.210 137.003, 514.260 136.117 C 520.837 134.207, 527.261 128.246, 531.059 120.531 C 533.725 115.117, 534.330 112.438, 535.118 102.584 C 536.447 85.952, 535.025 69.957, 531.621 63.238 C 528.229 56.546, 523.626 51.360, 518.965 48.982 C 511.934 45.395, 493.961 43.954, 483.009 46.099 M 864.009 46.099 C 853.650 48.127, 845.174 55.582, 841.384 66 C 839.242 71.887, 838.320 98.613, 839.907 108.839 C 841.881 121.562, 847.469 130.119, 856.796 134.699 C 862.219 137.362, 863.190 137.500, 876.500 137.500 C 893.535 137.500, 898.329 136.308, 904.844 130.450 C 912.303 123.744, 914.921 117.279, 916.153 102.518 C 917.564 85.617, 916.179 70.260, 912.607 63.210 C 909.229 56.544, 904.620 51.357, 899.965 48.982 C 892.934 45.395, 874.961 43.954, 864.009 46.099 M 1077.168 55.297 C 1076.335 56.302, 1047 134.498, 1047 135.716 C 1047 135.872, 1061.448 136, 1079.107 136 C 1109.279 136, 1111.173 135.895, 1110.531 134.250 C 1110.155 133.287, 1103.556 115.414, 1095.865 94.531 C 1088.174 73.648, 1081.403 55.986, 1080.818 55.281 C 1079.471 53.658, 1078.525 53.662, 1077.168 55.297 M 10.480 91.500 C 13.310 118.590, 23.992 132.953, 47 140.604 C 51.968 142.256, 56.611 142.440, 95 142.502 C 135.775 142.568, 137.843 142.663, 145.956 144.820 C 155.223 147.284, 170.296 154.044, 177.358 158.903 C 179.834 160.606, 182.093 162, 182.376 162 C 183.234 162, 173.063 137.891, 169.766 132.110 C 163.278 120.730, 154.376 113.804, 140.578 109.400 C 130.771 106.270, 120.670 106.029, 98.778 108.403 C 71.973 111.311, 53.526 110.286, 38.580 105.061 C 29.952 102.044, 24.370 98.489, 16.625 91.078 L 9.749 84.500 10.480 91.500" stroke="none" fill="#055494" fill-rule="evenodd"/></svg>